<svg width="17" height="16" viewBox="0 0 17 16" fill="none" xmlns="http://www.w3.org/2000/svg">
<g id="Action/Siren">
<path id="Siren" fill-rule="evenodd" clip-rule="evenodd" d="M8.49888 1.57227C11.2856 1.57227 13.5547 3.78873 13.6393 6.55494L13.6417 6.71512L13.6423 9.3965C14.3536 9.64817 14.8733 10.3053 14.9235 11.0902L14.9275 11.2151V12.5008C14.9275 13.5279 14.1246 14.3675 13.1122 14.4261L12.9989 14.4294H3.99888C2.9718 14.4294 2.13224 13.6265 2.07359 12.6142L2.07031 12.5008V11.2151C2.07031 10.3754 2.607 9.66101 3.35608 9.39627L3.35603 6.71512C3.35603 3.8748 5.65856 1.57227 8.49888 1.57227ZM12.9989 10.5723H3.99888C3.6692 10.5723 3.39749 10.8204 3.36035 11.1402L3.35603 11.2151V12.5008C3.35603 12.8305 3.6042 13.1022 3.92391 13.1394L3.99888 13.1437H12.9989C13.3286 13.1437 13.6003 12.8955 13.6374 12.5758L13.6417 12.5008V11.2151C13.6417 10.8601 13.3539 10.5723 12.9989 10.5723ZM8.49888 2.85798C6.41706 2.85798 4.72045 4.50728 4.6444 6.57052L4.64174 6.71512V9.28655H12.356V6.71512C12.356 4.68171 10.7825 3.0158 8.78675 2.86856L8.64349 2.86064L8.49888 2.85798ZM5.99174 5.23655C6.08642 5.11032 6.25613 5.07355 6.39241 5.14174L6.44174 5.17227L8.15603 6.45798C8.18039 6.47625 8.20204 6.4979 8.22031 6.52227C8.31499 6.6485 8.30277 6.82172 8.19914 6.93346L8.15603 6.97227L6.44174 8.25798C6.3861 8.29971 6.31843 8.32227 6.24888 8.32227C6.09109 8.32227 5.95985 8.20856 5.93263 8.05862L5.92746 8.00084V5.42941C5.92746 5.35986 5.95001 5.29219 5.99174 5.23655ZM11.006 5.23655C11.0478 5.29219 11.0703 5.35986 11.0703 5.42941V8.00084C11.0703 8.17836 10.9264 8.32227 10.7489 8.32227C10.6793 8.32227 10.6117 8.29971 10.556 8.25798L8.84174 6.97227C8.69973 6.86575 8.67094 6.66428 8.77746 6.52227C8.79573 6.4979 8.81738 6.47625 8.84174 6.45798L10.556 5.17227C10.698 5.06575 10.8995 5.09454 11.006 5.23655Z" fill="#E6EDF8"/>
</g>
</svg>
