<svg width="48" height="48" viewBox="0 0 48 48" fill="none" xmlns="http://www.w3.org/2000/svg">
<path d="M29.8317 12.0037C28.7266 11.9691 27.6278 12.1785 26.617 12.6161C25.6063 13.0538 24.7096 13.7084 23.9939 14.5314C23.2788 13.7108 22.384 13.0577 21.3757 12.6202C20.3674 12.1826 19.2712 11.972 18.1683 12.0037C15.9229 12.0894 13.8036 13.0399 12.2738 14.6474C10.744 16.2548 9.92828 18.3884 10.005 20.5815C10.005 24.8716 13.1082 27.5063 16.108 30.053C16.4524 30.3454 16.8005 30.6401 17.1461 30.9408L18.3959 32.0317C19.7589 33.2983 21.1879 34.4954 22.6772 35.6183C23.0712 35.8674 23.5306 36 24 36C24.4694 36 24.9288 35.8674 25.3228 35.6183C26.8595 34.4611 28.3324 33.2254 29.7355 31.9165L30.8576 30.9372C31.2141 30.6282 31.5756 30.3204 31.9346 30.0174C34.775 27.6109 37.995 24.8835 37.995 20.5815C38.0717 18.3884 37.256 16.2548 35.7262 14.6474C34.1964 13.0399 32.0771 12.0894 29.8317 12.0037Z" fill="white"/>
</svg>
