<svg width="20" height="20" viewBox="0 0 20 20" fill="none" xmlns="http://www.w3.org/2000/svg">
<path fill-rule="evenodd" clip-rule="evenodd" d="M13.9004 13.125C13.638 13.9235 12.8863 14.5 12 14.5C11.1137 14.5 10.362 13.9235 10.0996 13.125H5C4.65482 13.125 4.375 12.8452 4.375 12.5C4.375 12.1548 4.65482 11.875 5 11.875H10.0996C10.362 11.0765 11.1137 10.5 12 10.5C12.8863 10.5 13.638 11.0765 13.9004 11.875H15C15.3452 11.875 15.625 12.1548 15.625 12.5C15.625 12.8452 15.3452 13.125 15 13.125H13.9004ZM12.75 12.5C12.75 12.9142 12.4142 13.25 12 13.25C11.5858 13.25 11.25 12.9142 11.25 12.5C11.25 12.0858 11.5858 11.75 12 11.75C12.4142 11.75 12.75 12.0858 12.75 12.5Z" fill="white"/>
<path fill-rule="evenodd" clip-rule="evenodd" d="M9.90041 8.125C9.63796 8.92348 8.8863 9.5 8 9.5C7.1137 9.5 6.36204 8.92348 6.09959 8.125H5C4.65482 8.125 4.375 7.84518 4.375 7.5C4.375 7.15482 4.65482 6.875 5 6.875H6.09959C6.36204 6.07652 7.11369 5.5 8 5.5C8.8863 5.5 9.63796 6.07652 9.90041 6.875H15C15.3452 6.875 15.625 7.15482 15.625 7.5C15.625 7.84518 15.3452 8.125 15 8.125H9.90041ZM8.75 7.5C8.75 7.91421 8.41421 8.25 8 8.25C7.58579 8.25 7.25 7.91421 7.25 7.5C7.25 7.08579 7.58579 6.75 8 6.75C8.41421 6.75 8.75 7.08579 8.75 7.5Z" fill="white"/>
</svg>
