<svg width="19" height="18" viewBox="0 0 19 18" fill="none" xmlns="http://www.w3.org/2000/svg">
<g id="ic">
<path id="Vector" fill-rule="evenodd" clip-rule="evenodd" d="M7.07795 10.2678C6.93675 10.2678 6.79555 10.2112 6.68258 10.0981L5.56709 8.99466C4.45159 7.87716 4.45159 6.0665 5.56709 4.96314C6.68258 3.84562 8.48997 3.84562 9.59135 4.96314L10.7068 6.08065C10.9328 6.30698 10.9328 6.66062 10.7068 6.88696C10.4809 7.11329 10.1279 7.11329 9.90198 6.88696L8.78649 5.76944C8.46173 5.44409 8.02401 5.2602 7.57215 5.2602C7.10619 5.2602 6.68258 5.44409 6.35782 5.76944C5.68005 6.44844 5.68005 7.53765 6.35782 8.2025L7.47331 9.32003C7.69923 9.54636 7.69923 9.90001 7.47331 10.1263C7.37447 10.2112 7.21915 10.2678 7.07795 10.2678ZM11.6247 13.875C10.8904 13.875 10.1703 13.5921 9.60546 13.0404L8.48997 11.9229C8.26405 11.6965 8.26405 11.3429 8.48997 11.1166C8.7159 10.8902 9.06891 10.8902 9.2948 11.1166L10.4103 12.2341C11.0881 12.9131 12.1753 12.9131 12.839 12.2341C13.5168 11.5551 13.5168 10.4659 12.839 9.80101L11.7235 8.68348C11.4976 8.45716 11.4976 8.10351 11.7235 7.87719C11.9494 7.65087 12.3024 7.65087 12.5283 7.87719L13.6438 8.99469C14.7593 10.1122 14.7593 11.9229 13.6438 13.0262C13.079 13.5921 12.3589 13.875 11.6247 13.875ZM10.1138 10.2961C10.2267 10.4092 10.3679 10.4658 10.5092 10.4658C10.6645 10.4658 10.8057 10.4092 10.9186 10.3102C11.1446 10.0839 11.1446 9.73024 10.9186 9.50391L9.09712 7.67911C8.87123 7.45276 8.51822 7.45276 8.29229 7.67911C8.06636 7.90543 8.06636 8.25908 8.29229 8.48541L10.1138 10.2961Z" fill="#608CFF"/>
</g>
</svg>
