<svg width="21" height="20" viewBox="0 0 21 20" fill="none" xmlns="http://www.w3.org/2000/svg">
<g id="icon">
<path id="pencil" d="M14.9527 6.5353C15.6824 5.80273 15.6824 4.61481 14.9527 3.88235C14.2228 3.14989 13.0394 3.14989 12.3102 3.88235L7.02442 9.18803C6.96511 9.24778 6.91109 9.31045 6.86138 9.37517C6.74028 9.5161 6.64291 9.6698 6.56958 9.8327L6.56936 9.83194C6.56936 9.83194 6.56796 9.83508 6.56559 9.83865L5.53147 12.9187C5.53201 12.92 5.53244 12.9206 5.5332 12.9219C5.4768 13.0278 5.49201 13.1621 5.58075 13.2518C5.66896 13.3401 5.80127 13.3561 5.90641 13.3012C5.90953 13.3023 5.91234 13.3031 5.91493 13.304L9.01911 12.302C9.1842 12.2275 9.34013 12.1277 9.48247 12.0032C9.54641 11.9538 9.60874 11.8993 9.66697 11.8408L14.9527 6.5353Z" fill="#D7E1EE"/>
<path id="Vector 1048" d="M5.91797 16.25H15.0846" stroke="#D7E1EE" stroke-width="1.25" stroke-linecap="round"/>
</g>
</svg>
